SplineFontDB: 3.2
FontName: hiContr_Lite_Bold_Italic
FullName: hiContr Lite Bold Italic
FamilyName: hiContr Lite
Weight: Bold
Copyright: Copyright (c) 2022, RandomMaerks (aka Bao Nguyen) (rmforbusiness@gmail.com)
UComments: "2021-12-17: Created with FontForge (http://fontforge.org)"
Version: 1.0
ItalicAngle: 0
UnderlinePosition: -100
UnderlineWidth: 50
Ascent: 800
Descent: 200
InvalidEm: 0
LayerCount: 2
Layer: 0 0 "Back" 1
Layer: 1 0 "Fore" 0
XUID: [1021 301 932173752 19662]
StyleMap: 0x0000
FSType: 0
OS2Version: 0
OS2_WeightWidthSlopeOnly: 0
OS2_UseTypoMetrics: 1
CreationTime: 1639720902
ModificationTime: 1642688948
OS2TypoAscent: 0
OS2TypoAOffset: 1
OS2TypoDescent: 0
OS2TypoDOffset: 1
OS2TypoLinegap: 90
OS2WinAscent: 0
OS2WinAOffset: 1
OS2WinDescent: 0
OS2WinDOffset: 1
HheadAscent: 0
HheadAOffset: 1
HheadDescent: 0
HheadDOffset: 1
OS2Vendor: 'PfEd'
MarkAttachClasses: 1
DEI: 91125
Encoding: ISO8859-1
UnicodeInterp: none
NameList: AGL For New Fonts
DisplaySize: -48
AntiAlias: 1
FitToEm: 0
WinInfo: 0 38 14
BeginPrivate: 0
EndPrivate
Grid
-1000 857.399993896 m 0
 2000 857.399993896 l 1024
-1000 700 m 0
 2000 700 l 1024
  Named: "cap-height"
-1000 500 m 0
 2000 500 l 1024
  Named: "x-height"
EndSplineSet
BeginChars: 256 58

StartChar: n
Encoding: 110 110 0
Width: 419
Flags: HMW
LayerCount: 2
Fore
SplineSet
173.974609375 500 m 1
 201.974609375 500 l 1
 251.426757812 405.278320312 l 1
 285.177734375 468.639648438 331.93359375 528 398.477539062 528 c 0
 484.477539062 528 510.184570312 456 479.102539062 340 c 2
 388 0 l 1
 270 0 l 1
 369.141601562 370 l 2
 386.7109375 435.571289062 379.471679688 472 337.471679688 472 c 4
 303.471679688 472 270.91796875 421.415039062 251.782226562 350 c 2
 158 0 l 1
 40 0 l 1
 173.974609375 500 l 1
EndSplineSet
EndChar

StartChar: t
Encoding: 116 116 1
Width: 362
Flags: HMW
LayerCount: 2
Fore
SplineSet
376.166992188 650 m 1
 414.166992188 650 l 1
 373.974609375 500 l 1
 475.974609375 500 l 1
 465.79296875 462 l 5
 363.79296875 462 l 5
 240 0 l 1
 122 0 l 1
 245.79296875 462 l 5
 143.79296875 462 l 5
 148.615234375 480 l 5
 376.166992188 650 l 1
EndSplineSet
EndChar

StartChar: h
Encoding: 104 104 2
Width: 428
Flags: HMW
LayerCount: 2
Fore
SplineSet
227.564453125 700 m 1
 325.564453125 700 l 1
 245.698242188 401.935546875 l 1
 283.638671875 475.463867188 337.977539062 528 398.477539062 528 c 0
 484.477539062 528 510.184570312 456 479.102539062 340 c 2
 388 0 l 1
 270 0 l 1
 369.141601562 370 l 2
 388.43359375 442 382.151367188 482 340.151367188 482 c 4
 306.151367188 482 272.486328125 427.268554688 251.782226562 350 c 2
 158 0 l 1
 40 0 l 1
 227.564453125 700 l 1
EndSplineSet
EndChar

StartChar: u
Encoding: 117 117 3
Width: 428
Flags: HMW
LayerCount: 2
Fore
SplineSet
388 0 m 1
 360 0 l 1
 312.317382812 103.029296875 l 1
 278.555664062 40.66015625 232.125976562 -18 166.176757812 -18 c 0
 80.1767578125 -18 54.4697265625 54 85.5517578125 170 c 2
 173.974609375 500 l 1
 291.974609375 500 l 1
 195.512695312 140 l 2
 177.943359375 74.4287109375 185.181640625 38 227.181640625 38 c 4
 261.181640625 38 293.736328125 88.5849609375 312.872070312 160 c 2
 403.974609375 500 l 1
 521.974609375 500 l 1
 388 0 l 1
EndSplineSet
EndChar

StartChar: m
Encoding: 109 109 4
Width: 658
Flags: HMW
LayerCount: 2
Fore
SplineSet
173.974609375 500 m 1
 201.974609375 500 l 1
 251.426757812 405.278320312 l 1
 285.177734375 468.639648438 331.93359375 528 398.477539062 528 c 0
 454.401367188 528 489.470703125 477.553710938 495.3671875 424.360351562 c 1
 524.020507812 485.237304688 571.588867188 528 628.477539062 528 c 0
 714.477539062 528 740.184570312 456 709.102539062 340 c 2
 618 0 l 1
 500 0 l 1
 599.141601562 370 l 2
 616.7109375 435.571289062 609.471679688 472 567.471679688 472 c 4
 533.471679688 472 501.400390625 423.217773438 479.102539062 340 c 2
 388 0 l 1
 270 0 l 1
 369.141601562 370 l 2
 386.7109375 435.571289062 379.471679688 472 337.471679688 472 c 4
 303.471679688 472 270.91796875 421.415039062 251.782226562 350 c 2
 158 0 l 1
 40 0 l 1
 173.974609375 500 l 1
EndSplineSet
EndChar

StartChar: r
Encoding: 114 114 5
Width: 408
Flags: HMW
LayerCount: 2
Fore
SplineSet
173.974609375 500 m 1
 201.974609375 500 l 1
 251.426757812 405.278320312 l 1
 285.177734375 468.639648438 331.93359375 528 398.477539062 528 c 0
 484.477539062 528 510.184570312 456 479.102539062 340 c 1
 355.744140625 320 l 1
 381.92578125 417.713867188 379.471679688 472 337.471679688 472 c 4
 303.471679688 472 270.91796875 421.415039062 251.782226562 350 c 2
 158 0 l 1
 40 0 l 1
 173.974609375 500 l 1
EndSplineSet
EndChar

StartChar: o
Encoding: 111 111 6
Width: 414
Flags: HMW
LayerCount: 2
Fore
SplineSet
347.137695312 523 m 0
 433.137695312 523 507.524414062 461 473.762695312 335 c 2
 430.890625 175 l 2
 397.129882812 49 289.516601562 -13 203.516601562 -13 c 0
 117.516601562 -13 43.1298828125 49 76.890625 175 c 2
 119.762695312 335 l 2
 153.524414062 461 261.137695312 523 347.137695312 523 c 0
337.491210938 487 m 0
 295.491210938 487 267.7734375 447 248.48046875 375 c 2
 184.172851562 135 l 6
 164.880859375 63 171.163085938 23 213.163085938 23 c 4
 255.163085938 23 282.880859375 63 302.172851562 135 c 6
 366.48046875 375 l 2
 385.7734375 447 379.491210938 487 337.491210938 487 c 0
EndSplineSet
EndChar

StartChar: e
Encoding: 101 101 7
Width: 414
Flags: HMW
LayerCount: 2
Fore
SplineSet
220.102539062 269.090820312 m 1
 341.975585938 283.545898438 l 1
 368.892578125 384 l 2
 385.548828125 446.161132812 379.975585938 487 337.491210938 487 c 0
 295.491210938 487 267.7734375 447 248.48046875 375 c 2
 220.102539062 269.090820312 l 1
212.133789062 239.350585938 m 1
 184.172851562 135 l 6
 164.880859375 63 171.163085938 23 213.163085938 23 c 4
 255.163085938 23 288.623046875 84.4287109375 318.25 195 c 1
 430.890625 175 l 1
 397.129882812 49 289.516601562 -13 203.516601562 -13 c 0
 117.516601562 -13 43.1298828125 49 76.890625 175 c 2
 119.762695312 335 l 2
 153.524414062 461 261.137695312 523 347.137695312 523 c 0
 433.137695312 523 507.524414062 461 473.762695312 335 c 2
 456.346679688 270 l 1
 212.133789062 239.350585938 l 1
EndSplineSet
EndChar

StartChar: c
Encoding: 99 99 8
Width: 414
Flags: HMW
LayerCount: 2
Fore
SplineSet
473.762695312 335 m 1
 350.404296875 315 l 1
 380.03125 425.571289062 379.491210938 487 337.491210938 487 c 0
 295.491210938 487 267.7734375 447 248.48046875 375 c 2
 184.172851562 135 l 6
 164.880859375 63 171.163085938 23 213.163085938 23 c 4
 255.163085938 23 288.623046875 84.4287109375 318.25 195 c 1
 430.890625 175 l 1
 397.129882812 49 289.516601562 -13 203.516601562 -13 c 0
 117.516601562 -13 43.1298828125 49 76.890625 175 c 2
 119.762695312 335 l 2
 153.524414062 461 261.137695312 523 347.137695312 523 c 0
 433.137695312 523 507.524414062 461 473.762695312 335 c 1
EndSplineSet
EndChar

StartChar: l
Encoding: 108 108 9
Width: 229
Flags: HMW
LayerCount: 2
Fore
SplineSet
158 0 m 2
 82 0 53.1298828125 49 65.72265625 96 c 2
 214.166992188 650 l 1
 345.564453125 700 l 1
 181.043945312 86 l 2
 174.5078125 61.6083984375 183.08984375 53 200.201171875 53 c 6
 213.201171875 53 l 1
 199 0 l 1
 158 0 l 2
EndSplineSet
EndChar

StartChar: b
Encoding: 98 98 10
Width: 424
Flags: HMW
LayerCount: 2
Fore
SplineSet
388.477539062 528 m 0
 464.477539062 528 516.184570312 456 485.102539062 340 c 2
 442.23046875 180 l 2
 411.1484375 64 320.856445312 -8 244.856445312 -8 c 0
 192.9609375 -8 164.547851562 49.2958984375 174.744140625 123.447265625 c 1
 68 0 l 1
 40 0 l 1
 227.564453125 700 l 1
 325.564453125 700 l 1
 249.127929688 414.734375 l 1
 285.798828125 479.25390625 340.140625 528 388.477539062 528 c 0
243.744140625 320 m 2
 211.58984375 200 l 2
 185.407226562 102.286132812 187.861328125 48 229.861328125 48 c 4
 271.861328125 48 299.579101562 88 318.872070312 160 c 6
 372.461914062 360 l 2
 391.75390625 432 385.471679688 472 343.471679688 472 c 0
 301.471679688 472 269.92578125 417.713867188 243.744140625 320 c 2
EndSplineSet
EndChar

StartChar: d
Encoding: 100 100 11
Width: 424
Flags: HMW
LayerCount: 2
Fore
SplineSet
318.477539062 528 m 0
 242.477539062 528 152.184570312 456 121.102539062 340 c 2
 78.23046875 180 l 2
 47.1484375 64 98.8564453125 -8 174.856445312 -8 c 0
 226.751953125 -8 285.870117188 49.2958984375 315.41015625 123.447265625 c 1
 356 0 l 1
 384 0 l 1
 571.564453125 700 l 1
 473.564453125 700 l 1
 397.127929688 414.734375 l 1
 395.033203125 479.25390625 366.814453125 528 318.477539062 528 c 0
351.744140625 320 m 2
 319.58984375 200 l 2
 293.407226562 102.286132812 261.861328125 48 219.861328125 48 c 4
 177.861328125 48 171.579101562 88 190.872070312 160 c 6
 244.461914062 360 l 2
 263.75390625 432 291.471679688 472 333.471679688 472 c 0
 375.471679688 472 377.92578125 417.713867188 351.744140625 320 c 2
EndSplineSet
EndChar

StartChar: p
Encoding: 112 112 12
Width: 424
Flags: HMW
LayerCount: 2
Fore
SplineSet
239.497070312 -28 m 0
 315.497070312 -28 405.790039062 44 436.872070312 160 c 2
 479.744140625 320 l 2
 510.826171875 436 459.118164062 508 383.118164062 508 c 0
 331.22265625 508 272.104492188 450.704101562 242.564453125 376.552734375 c 1
 201.974609375 500 l 1
 173.974609375 500 l 1
 -0.1923828125 -150 l 1
 97.8076171875 -150 l 1
 160.846679688 85.265625 l 1
 162.94140625 20.74609375 191.16015625 -28 239.497070312 -28 c 0
206.23046875 180 m 2
 238.384765625 300 l 2
 264.567382812 397.713867188 296.11328125 452 338.11328125 452 c 0
 380.11328125 452 386.395507812 412 367.102539062 340 c 2
 313.512695312 140 l 6
 294.220703125 68 266.502929688 28 224.502929688 28 c 4
 182.502929688 28 180.048828125 82.2861328125 206.23046875 180 c 2
EndSplineSet
EndChar

StartChar: q
Encoding: 113 113 13
Width: 424
Flags: HMW
LayerCount: 2
Fore
SplineSet
169.497070312 -28 m 0
 93.4970703125 -28 41.7900390625 44 72.8720703125 160 c 2
 115.744140625 320 l 2
 146.826171875 436 237.118164062 508 313.118164062 508 c 0
 365.013671875 508 393.426757812 450.704101562 383.23046875 376.552734375 c 1
 489.974609375 500 l 1
 517.974609375 500 l 1
 343.807617188 -150 l 1
 245.807617188 -150 l 1
 308.846679688 85.265625 l 1
 272.17578125 20.74609375 217.833984375 -28 169.497070312 -28 c 0
314.23046875 180 m 2
 346.384765625 300 l 2
 372.567382812 397.713867188 370.11328125 452 328.11328125 452 c 0
 286.11328125 452 258.395507812 412 239.102539062 340 c 2
 185.512695312 140 l 6
 166.220703125 68 172.502929688 28 214.502929688 28 c 4
 256.502929688 28 288.048828125 82.2861328125 314.23046875 180 c 2
EndSplineSet
EndChar

StartChar: i
Encoding: 105 105 14
Width: 198
Flags: HMW
LayerCount: 2
Fore
SplineSet
308.051757812 560 m 1
 190.051757812 560 l 1
 219.526367188 670 l 1
 337.526367188 670 l 1
 308.051757812 560 l 1
158 0 m 5
 40 0 l 5
 173.974609375 500 l 5
 291.974609375 500 l 5
 158 0 l 5
EndSplineSet
EndChar

StartChar: a
Encoding: 97 97 15
Width: 434
Flags: HMW
LayerCount: 2
Fore
SplineSet
312.98828125 111.01171875 m 1
 287.1875 52.677734375 228.848632812 -7.8203125 153.138671875 -7.8203125 c 0
 88.287109375 -7.8203125 52.322265625 45.98828125 76.708984375 137 c 0
 106.775390625 249.208984375 230.415039062 292.649414062 354.415039062 292.649414062 c 1
 360.939453125 317 l 2
 390.567382812 427.571289062 390.02734375 489 348.02734375 489 c 0
 306.02734375 489 272.567382812 427.571289062 242.939453125 317 c 1
 130.298828125 337 l 1
 166.204101562 471 271.672851562 525 357.672851562 525 c 0
 443.672851562 525 519.131835938 467 484.298828125 337 c 2
 394 0 l 1
 360 0 l 1
 312.98828125 111.01171875 l 1
346.982421875 264.909179688 m 1
 260.982421875 264.909179688 212.15234375 202.099609375 200.458007812 158.454101562 c 0
 190.65234375 121.861328125 189.1640625 55 231.737304688 55 c 0
 273.737304688 55 304.326171875 105.713867188 328.786132812 197 c 2
 346.982421875 264.909179688 l 1
EndSplineSet
EndChar

StartChar: f
Encoding: 102 102 17
Width: 362
Flags: HMW
LayerCount: 2
Fore
SplineSet
466.013671875 673.400390625 m 4
 405.044921875 673.400390625 367.701171875 588.546875 343.974609375 500 c 1
 475.974609375 500 l 1
 465.79296875 462 l 1
 333.79296875 462 l 1
 210 0 l 1
 92 0 l 1
 215.79296875 462 l 1
 143.79296875 462 l 1
 153.974609375 500 l 1
 225.974609375 500 l 1
 268.657226562 659.291992188 370.166015625 720 461.923828125 720 c 0
 489.923828125 720 502.659179688 713.916992188 514.708007812 708 c 1
 503.721679688 667 l 5
 503.721679688 667 487.517578125 673.400390625 466.013671875 673.400390625 c 4
EndSplineSet
EndChar

StartChar: g
Encoding: 103 103 18
Width: 424
Flags: HMW
LayerCount: 2
Fore
SplineSet
327.092773438 228 m 2
 346.384765625 300 l 2
 374.290039062 404.142578125 372.79296875 462 330.79296875 462 c 0
 288.79296875 462 261.07421875 422 241.782226562 350 c 2
 195.6953125 178 l 2
 176.40234375 106 182.684570312 66 224.684570312 66 c 0
 266.684570312 66 299.1875 123.857421875 327.092773438 228 c 2
182.359375 20 m 0
 106.359375 20 54.6513671875 92 85.7333984375 208 c 2
 115.744140625 320 l 2
 146.826171875 436 237.118164062 508 313.118164062 508 c 0
 375.013671875 508 396.106445312 460.704101562 383.23046875 376.552734375 c 1
 499.974609375 500 l 1
 517.974609375 500 l 1
 378.10546875 -22 l 2
 342.735351562 -154 239.41015625 -200 153.41015625 -200 c 0
 67.41015625 -200 -11.2646484375 -154 24.10546875 -22 c 1
 147.463867188 -2 l 1
 116.823242188 -116.352539062 121.056640625 -164 163.056640625 -164 c 4
 205.056640625 -164 230.094726562 -134 249.38671875 -62 c 6
 293.669921875 103.265625 l 1
 265.59375 47 230.696289062 20 182.359375 20 c 0
EndSplineSet
EndChar

StartChar: j
Encoding: 106 106 19
Width: 198
Flags: HMW
LayerCount: 2
Fore
SplineSet
308.051757812 560 m 1
 190.051757812 560 l 1
 219.526367188 670 l 1
 337.526367188 670 l 1
 308.051757812 560 l 1
29.2822265625 -40 m 6
 173.974609375 500 l 1
 291.974609375 500 l 1
 163.359375 20 l 2
 120.676757812 -139.291992188 19.16796875 -200 -72.58984375 -200 c 0
 -100.58984375 -200 -113.325195312 -193.916992188 -125.374023438 -188 c 1
 -117.068359375 -157 l 5
 -117.068359375 -157 -100.86328125 -163.400390625 -79.359375 -163.400390625 c 4
 -18.390625 -163.400390625 12.3974609375 -103.014648438 29.2822265625 -40 c 6
EndSplineSet
EndChar

StartChar: k
Encoding: 107 107 20
Width: 412
Flags: HMW
LayerCount: 2
Fore
SplineSet
158 0 m 1
 40 0 l 1
 227.564453125 700 l 1
 335.564453125 700 l 1
 207.188476562 220.895507812 l 1
 477.974609375 500 l 1
 525.974609375 500 l 1
 339.541992188 294.509765625 l 1
 392 0 l 1
 274 0 l 1
 237.588867188 222.387695312 l 1
 209.549804688 192.387695312 l 1
 158 0 l 1
EndSplineSet
EndChar

StartChar: v
Encoding: 118 118 21
Width: 388
Flags: HMW
LayerCount: 2
Fore
SplineSet
252.038085938 30 m 1
 471.974609375 500 l 5
 501.974609375 500 l 1
 268 0 l 1
 140 0 l 1
 153.974609375 500 l 1
 271.974609375 500 l 1
 252.038085938 30 l 1
EndSplineSet
EndChar

StartChar: w
Encoding: 119 119 22
Width: 648
Flags: HMW
LayerCount: 2
Fore
SplineSet
222.038085938 30 m 1
 423.974609375 500 l 5
 541.974609375 500 l 5
 512.038085938 30 l 1
 733.974609375 500 l 1
 761.974609375 500 l 1
 528 0 l 1
 420 0 l 1
 436.541992188 457.333007812 l 5
 238 0 l 1
 130 0 l 1
 153.974609375 500 l 1
 271.974609375 500 l 1
 222.038085938 30 l 1
EndSplineSet
EndChar

StartChar: y
Encoding: 121 121 23
Width: 388
Flags: HMW
LayerCount: 2
Fore
SplineSet
282.115234375 90 m 1
 470.974609375 500 l 1
 501.974609375 500 l 1
 195.127929688 -160 l 1
 80.1279296875 -160 l 1
 186.077148438 60 l 1
 166.077148438 60 l 1
 153.974609375 500 l 1
 271.974609375 500 l 1
 282.115234375 90 l 1
EndSplineSet
EndChar

StartChar: x
Encoding: 120 120 24
Width: 406
Flags: HMW
LayerCount: 2
Fore
SplineSet
386 0 m 1
 268 0 l 1
 234.517578125 196 l 1
 70 0 l 5
 20 0 l 1
 226.256835938 228.614257812 l 1
 153.974609375 500 l 1
 271.974609375 500 l 1
 306.528320312 308 l 1
 481.974609375 500 l 1
 519.974609375 500 l 1
 314.7890625 275.385742188 l 1
 386 0 l 1
EndSplineSet
EndChar

StartChar: z
Encoding: 122 122 25
Width: 408
Flags: HMW
LayerCount: 2
Fore
SplineSet
135.036132812 392 m 1
 163.974609375 500 l 1
 511.974609375 500 l 1
 482.5 390 l 1
 102.888671875 108 l 5
 406.938476562 108 l 1
 378 0 l 1
 30 0 l 1
 61.6181640625 118 l 1
 438.946289062 392 l 1
 135.036132812 392 l 1
EndSplineSet
EndChar

StartChar: s
Encoding: 115 115 26
Width: 414
Flags: HMW
LayerCount: 2
Fore
SplineSet
250.356445312 382 m 0
 238.541992188 337.907226562 234.91015625 295.904296875 275.9921875 278 c 4
 331.059570312 254 454.8359375 264.362304688 419.369140625 132 c 0
 393.646484375 36 288.712890625 -16 202.712890625 -16 c 0
 116.712890625 -16 42.3251953125 46 76.0869140625 172 c 1
 199.446289062 192 l 1
 169.818359375 81.4287109375 170.359375 20 212.359375 20 c 0
 254.359375 20 289.25 86.76953125 301.369140625 132 c 0
 313.584960938 177.588867188 311.482421875 219.752929688 286.842773438 231 c 0
 226.608398438 258.495117188 96.01953125 246.388671875 129.676757812 372 c 0
 155.400390625 468 260.333984375 520 346.333984375 520 c 0
 432.333984375 520 509.400390625 468 472.958984375 332 c 1
 349.600585938 312 l 1
 379.227539062 422.571289062 378.6875 484 336.6875 484 c 0
 294.6875 484 265.919921875 440.083007812 250.356445312 382 c 0
EndSplineSet
EndChar

StartChar: H
Encoding: 72 72 27
Width: 498
Flags: HMW
LayerCount: 2
Fore
SplineSet
158 0 m 1
 40 0 l 1
 227.564453125 700 l 1
 345.564453125 700 l 1
 264.912109375 399 l 5
 446.912109375 399 l 5
 527.564453125 700 l 1
 645.564453125 700 l 1
 458 0 l 1
 340 0 l 1
 437.265625 363 l 1
 255.265625 363 l 1
 158 0 l 1
EndSplineSet
EndChar

StartChar: N
Encoding: 78 78 28
Width: 498
Flags: HMW
LayerCount: 2
Fore
SplineSet
158 0 m 1
 40 0 l 1
 227.564453125 700 l 1
 385.564453125 700 l 1
 355.18359375 56.6669921875 l 1
 527.564453125 700 l 1
 645.564453125 700 l 1
 458 0 l 1
 310 0 l 1
 336.6328125 666.666992188 l 5
 158 0 l 1
EndSplineSet
EndChar

StartChar: M
Encoding: 77 77 29
Width: 662
Flags: HMW
LayerCount: 2
Fore
SplineSet
338.064453125 26.36328125 m 1
 641.564453125 700 l 5
 809.564453125 700 l 1
 622 0 l 1
 504 0 l 1
 685.3125 676.666992188 l 1
 372 0 l 1
 290 0 l 1
 339.3125 676.666992188 l 1
 158 0 l 1
 40 0 l 1
 227.564453125 700 l 1
 395.564453125 700 l 1
 338.064453125 26.36328125 l 1
EndSplineSet
EndChar

StartChar: U
Encoding: 85 85 30
Width: 484
Flags: HMW
LayerCount: 2
Fore
SplineSet
504.91015625 190 m 2
 463.110351562 34 333.176757812 -18 237.176757812 -18 c 0
 141.176757812 -18 39.1103515625 34 80.91015625 190 c 2
 217.564453125 700 l 1
 335.564453125 700 l 1
 335.564453125 700 239.102539062 340 190.872070312 160 c 4
 166.220703125 68 199.646484375 36 251.646484375 36 c 4
 303.646484375 36 359.579101562 88 378.872070312 160 c 4
 427.102539062 340 523.564453125 700 523.564453125 700 c 1
 641.564453125 700 l 1
 504.91015625 190 l 2
EndSplineSet
EndChar

StartChar: O
Encoding: 79 79 31
Width: 484
Flags: HMW
LayerCount: 2
Fore
SplineSet
434.387695312 718 m 0
 530.387695312 718 632.454101562 666 590.654296875 510 c 2
 504.91015625 190 l 2
 463.110351562 34 333.176757812 -18 237.176757812 -18 c 0
 141.176757812 -18 39.1103515625 34 80.91015625 190 c 2
 166.654296875 510 l 2
 208.454101562 666 338.387695312 718 434.387695312 718 c 0
419.91796875 664 m 0
 367.91796875 664 317.34375 632 292.692382812 540 c 2
 190.872070312 160 l 6
 166.220703125 68 199.646484375 36 251.646484375 36 c 4
 303.646484375 36 359.579101562 88 378.872070312 160 c 6
 480.692382812 540 l 2
 505.34375 632 471.91796875 664 419.91796875 664 c 0
EndSplineSet
EndChar

StartChar: C
Encoding: 67 67 32
Width: 484
Flags: HMW
LayerCount: 2
Fore
SplineSet
504.91015625 190 m 1
 463.110351562 34 333.176757812 -18 237.176757812 -18 c 0
 141.176757812 -18 39.1103515625 34 80.91015625 190 c 2
 166.654296875 510 l 2
 208.454101562 666 338.387695312 718 434.387695312 718 c 0
 530.387695312 718 632.454101562 666 590.654296875 510 c 1
 467.294921875 490 l 1
 501.88671875 619.096679688 471.91796875 664 419.91796875 664 c 0
 367.91796875 664 317.34375 632 292.692382812 540 c 2
 190.872070312 160 l 6
 166.220703125 68 199.646484375 36 251.646484375 36 c 4
 303.646484375 36 365.198242188 108.967773438 392.26953125 210 c 1
 504.91015625 190 l 1
EndSplineSet
EndChar

StartChar: G
Encoding: 71 71 33
Width: 484
Flags: HMW
LayerCount: 2
Fore
SplineSet
339.24609375 348 m 1
 547.24609375 348 l 1
 504.91015625 190 l 2
 463.110351562 34 333.176757812 -18 237.176757812 -18 c 0
 141.176757812 -18 39.1103515625 34 80.91015625 190 c 2
 166.654296875 510 l 2
 208.454101562 666 338.387695312 718 434.387695312 718 c 0
 530.387695312 718 632.454101562 666 590.654296875 510 c 1
 467.294921875 490 l 1
 501.88671875 619.096679688 471.91796875 664 419.91796875 664 c 0
 367.91796875 664 317.34375 632 292.692382812 540 c 2
 190.872070312 160 l 6
 166.220703125 68 199.646484375 36 251.646484375 36 c 4
 303.646484375 36 359.579101562 88 378.872070312 160 c 6
 420.671875 316 l 1
 320.671875 316 l 1
 339.24609375 348 l 1
EndSplineSet
EndChar

StartChar: Q
Encoding: 81 81 34
Width: 484
Flags: HMW
LayerCount: 2
Fore
SplineSet
419.91796875 664 m 0
 367.91796875 664 317.34375 632 292.692382812 540 c 2
 190.872070312 160 l 6
 166.220703125 68 199.646484375 36 251.646484375 36 c 4
 303.646484375 36 359.579101562 88 378.872070312 160 c 6
 480.692382812 540 l 2
 505.34375 632 471.91796875 664 419.91796875 664 c 0
434.387695312 718 m 0
 530.387695312 718 632.454101562 666 590.654296875 510 c 2
 504.91015625 190 l 2
 466.249023438 45.712890625 352.190429688 -9.60546875 259.322265625 -17.0986328125 c 1
 252.578125 -26.994140625 246.858398438 -37.8486328125 243.870117188 -49 c 0
 235.814453125 -79.06640625 253.58203125 -90.609375 297.638671875 -90.609375 c 0
 343.33203125 -90.609375 373.368164062 -77 373.368164062 -77 c 1
 331.109375 -175 l 1
 331.109375 -175 293.4453125 -187.920898438 245.583984375 -187.920898438 c 0
 189.350585938 -187.920898438 125.888671875 -168.358398438 148.4921875 -84 c 0
 155.827148438 -56.6259765625 169.982421875 -32.3642578125 185.092773438 -12.5263671875 c 1
 108.806640625 4.357421875 46.712890625 62.375 80.91015625 190 c 2
 166.654296875 510 l 2
 208.454101562 666 338.387695312 718 434.387695312 718 c 0
EndSplineSet
EndChar

StartChar: S
Encoding: 83 83 35
Width: 484
Flags: HMW
LayerCount: 2
Fore
SplineSet
172.012695312 530 m 0
 208.454101562 666 338.387695312 718 434.387695312 718 c 0
 530.387695312 718 632.454101562 666 590.654296875 510 c 1
 467.294921875 490 l 1
 501.88671875 619.096679688 471.91796875 664 419.91796875 664 c 0
 362.38671875 664 304.045898438 619.692382812 277.333984375 520 c 0
 253.971679688 432.810546875 287.217773438 386.26171875 341.060546875 371 c 0
 463.762695312 335 535.73046875 305.021484375 499.551757812 170 c 0
 463.110351562 34 333.176757812 -18 237.176757812 -18 c 0
 141.176757812 -18 39.1103515625 34 80.91015625 190 c 1
 204.26953125 210 l 1
 177.198242188 108.967773438 199.646484375 36 251.646484375 36 c 0
 309.177734375 36 367.518554688 80.3076171875 394.23046875 180 c 4
 412.551757812 248.373046875 394.822265625 316.9140625 336.096679688 333 c 0
 215.0546875 367.564453125 137.818359375 402.383789062 172.012695312 530 c 0
EndSplineSet
EndChar

StartChar: A
Encoding: 65 65 36
Width: 498
Flags: HMW
LayerCount: 2
Fore
SplineSet
217.606445312 172 m 1
 138 0 l 1
 20 0 l 1
 357.564453125 700 l 1
 525.564453125 700 l 1
 478 0 l 1
 360 0 l 1
 376.766601562 172 l 1
 217.606445312 172 l 1
229.374023438 203 m 1
 379.463867188 203 l 1
 433.526367188 670 l 1
 229.374023438 203 l 1
EndSplineSet
EndChar

StartChar: V
Encoding: 86 86 37
Width: 498
Flags: HMW
LayerCount: 2
Fore
SplineSet
299.359375 20 m 5
 627.564453125 700 l 1
 665.564453125 700 l 1
 328 0 l 5
 180 0 l 5
 207.564453125 700 l 1
 325.564453125 700 l 1
 299.359375 20 l 5
EndSplineSet
EndChar

StartChar: W
Encoding: 87 87 38
Width: 820
Flags: HMW
LayerCount: 2
Fore
SplineSet
262.038085938 30 m 5
 547.564453125 700 l 1
 676.564453125 700 l 1
 654.038085938 30 l 1
 955.564453125 700 l 1
 987.564453125 700 l 1
 672 0 l 1
 552 0 l 1
 569.938476562 671.538085938 l 1
 288 0 l 5
 160 0 l 1
 207.564453125 700 l 1
 325.564453125 700 l 1
 262.038085938 30 l 5
EndSplineSet
EndChar

StartChar: L
Encoding: 76 76 39
Width: 438
Flags: HMW
LayerCount: 2
Fore
SplineSet
187.474609375 110 m 5
 437.474609375 110 l 5
 408 0 l 5
 40 0 l 5
 227.564453125 700 l 5
 345.564453125 700 l 5
 187.474609375 110 l 5
EndSplineSet
EndChar

StartChar: D
Encoding: 68 68 40
Width: 484
Flags: HMW
LayerCount: 2
Fore
SplineSet
172.469726562 54 m 5
 256.469726562 54 l 6
 308.469726562 54 364.40234375 106 383.6953125 178 c 6
 475.869140625 522 l 2
 500.520507812 614 467.094726562 646 415.094726562 646 c 2
 331.094726562 646 l 1
 172.469726562 54 l 5
40 0 m 1
 227.564453125 700 l 1
 429.564453125 700 l 2
 525.564453125 700 627.630859375 648 585.831054688 492 c 2
 509.733398438 208 l 2
 467.93359375 52 338 0 242 0 c 2
 40 0 l 1
EndSplineSet
EndChar

StartChar: I
Encoding: 73 73 41
Width: 198
Flags: HMW
LayerCount: 2
Fore
SplineSet
158 0 m 5
 40 0 l 5
 227.564453125 700 l 5
 345.564453125 700 l 5
 158 0 l 5
EndSplineSet
EndChar

StartChar: B
Encoding: 66 66 42
Width: 484
Flags: HMW
LayerCount: 2
Fore
SplineSet
185.8671875 104 m 1
 269.8671875 104 l 2
 330.959960938 104 373.616210938 149.051757812 398.541992188 242.078125 c 4
 415.416015625 305.051757812 406.83984375 387 345.696289062 387 c 2
 261.696289062 387 l 1
 185.8671875 104 l 1
268.126953125 411 m 1
 312.126953125 411 l 2
 373.219726562 411 409.981445312 434.051757812 424.189453125 487.078125 c 0
 438.383789062 540.051757812 422.840820312 596 361.697265625 596 c 2
 317.697265625 596 l 1
 268.126953125 411 l 1
449.748046875 407.6484375 m 1
 509.696289062 387 544.083984375 336.19921875 519.379882812 244 c 2
 507.58984375 200 l 2
 465.790039062 44 338 0 242 0 c 2
 40 0 l 1
 227.564453125 700 l 1
 389.564453125 700 l 2
 526.208007812 700 577.497070312 635.813476562 549.337890625 530.719726562 c 0
 527.44140625 449 489.217773438 430 449.748046875 407.6484375 c 1
EndSplineSet
EndChar

StartChar: P
Encoding: 80 80 43
Width: 484
Flags: HMW
LayerCount: 2
Fore
SplineSet
227.564453125 700 m 1
 429.564453125 700 l 2
 525.564453125 700 627.630859375 648 585.831054688 492 c 2
 574.041015625 448 l 2
 537.600585938 312 448.384765625 300 352.384765625 300 c 2
 238.384765625 300 l 1
 158 0 l 1
 40 0 l 1
 227.564453125 700 l 1
247.495117188 334 m 1
 331.495117188 334 l 2
 392.587890625 334 434.708007812 377.051757812 456.955078125 460.078125 c 0
 473.829101562 523.051757812 462.840820312 596 401.697265625 596 c 2
 317.697265625 596 l 1
 247.495117188 334 l 1
EndSplineSet
EndChar

StartChar: R
Encoding: 82 82 44
Width: 484
Flags: HMW
LayerCount: 2
Fore
SplineSet
252.854492188 354 m 1
 336.854492188 354 l 2
 397.947265625 354 444.354492188 413.05078125 460.170898438 472.078125 c 0
 478.208984375 539.397460938 462.840820312 596 401.697265625 596 c 2
 317.697265625 596 l 1
 252.854492188 354 l 1
227.564453125 700 m 1
 429.564453125 700 l 2
 525.564453125 700 629.7421875 655.87890625 585.831054688 492 c 2
 582.080078125 478 l 2
 552.794921875 368.706054688 476.630859375 334.505859375 410.750976562 334.505859375 c 5
 454 0 l 1
 319 0 l 1
 295.270507812 320 l 1
 243.744140625 320 l 1
 158 0 l 1
 40 0 l 1
 227.564453125 700 l 1
EndSplineSet
EndChar

StartChar: T
Encoding: 84 84 45
Width: 468
Flags: HMW
LayerCount: 2
Fore
SplineSet
332.08984375 590 m 1
 188.08984375 590 l 1
 217.564453125 700 l 1
 625.564453125 700 l 1
 596.08984375 590 l 1
 450.08984375 590 l 1
 292 0 l 1
 174 0 l 1
 332.08984375 590 l 1
EndSplineSet
EndChar

StartChar: J
Encoding: 74 74 46
Width: 293
Flags: HMW
LayerCount: 2
Fore
SplineSet
175.192382812 150 m 6
 322.564453125 700 l 1
 440.564453125 700 l 1
 306.58984375 200 l 2
 263.907226562 40.7080078125 162.3984375 -20 70.640625 -20 c 0
 42.640625 -20 29.9052734375 -13.9169921875 17.8564453125 -8 c 1
 28.8427734375 33 l 5
 28.8427734375 33 45.046875 26.599609375 66.55078125 26.599609375 c 4
 127.51953125 26.599609375 158.307617188 86.9853515625 175.192382812 150 c 6
EndSplineSet
EndChar

StartChar: E
Encoding: 69 69 47
Width: 438
Flags: HMW
LayerCount: 2
Fore
SplineSet
261.428710938 386 m 1
 489.428710938 386 l 1
 477.102539062 340 l 5
 249.102539062 340 l 5
 187.474609375 110 l 1
 437.474609375 110 l 1
 408 0 l 1
 40 0 l 1
 227.564453125 700 l 1
 595.564453125 700 l 1
 566.08984375 590 l 1
 316.08984375 590 l 1
 261.428710938 386 l 1
EndSplineSet
EndChar

StartChar: F
Encoding: 70 70 48
Width: 438
Flags: HMW
LayerCount: 2
Fore
SplineSet
316.08984375 590 m 1
 261.428710938 386 l 1
 489.428710938 386 l 1
 477.102539062 340 l 5
 249.102539062 340 l 5
 158 0 l 1
 40 0 l 1
 227.564453125 700 l 1
 595.564453125 700 l 1
 566.08984375 590 l 1
 316.08984375 590 l 1
EndSplineSet
EndChar

StartChar: Y
Encoding: 89 89 49
Width: 498
Flags: HMW
LayerCount: 2
Fore
SplineSet
354.384765625 300 m 1
 617.564453125 700 l 5
 665.564453125 700 l 1
 366.791015625 253 l 1
 299 0 l 1
 189 0 l 1
 256.791015625 253 l 1
 207.564453125 700 l 1
 325.564453125 700 l 1
 354.384765625 300 l 1
EndSplineSet
EndChar

StartChar: K
Encoding: 75 75 50
Width: 482
Flags: HMW
LayerCount: 2
Fore
SplineSet
158 0 m 1
 40 0 l 1
 227.564453125 700 l 1
 345.564453125 700 l 1
 243.983398438 320.895507812 l 1
 601.564453125 700 l 1
 649.564453125 700 l 1
 363.657226562 384.509765625 l 1
 452 0 l 1
 324 0 l 1
 255.953125 298.387695312 l 1
 230.986328125 272.387695312 l 1
 158 0 l 1
EndSplineSet
EndChar

StartChar: X
Encoding: 88 88 51
Width: 514
Flags: HMW
LayerCount: 2
Fore
SplineSet
494 0 m 1
 376 0 l 1
 318.168945312 288 l 5
 68 0 l 1
 20 0 l 1
 306.98046875 324.614257812 l 5
 207.564453125 700 l 1
 325.564453125 700 l 1
 392.610351562 424 l 1
 642.564453125 700 l 1
 681.564453125 700 l 1
 403.799804688 387.385742188 l 1
 494 0 l 1
EndSplineSet
EndChar

StartChar: Z
Encoding: 90 90 52
Width: 478
Flags: HMW
LayerCount: 2
Fore
SplineSet
188.625976562 592 m 1
 217.564453125 700 l 1
 635.564453125 700 l 1
 606.08984375 590 l 1
 102.888671875 108 l 1
 476.938476562 108 l 1
 448 0 l 1
 30 0 l 1
 61.6181640625 118 l 1
 562.536132812 592 l 1
 188.625976562 592 l 1
EndSplineSet
EndChar

StartChar: period
Encoding: 46 46 53
Width: 198
Flags: HMW
LayerCount: 2
Fore
SplineSet
158 0 m 5
 40 0 l 5
 71.08203125 116 l 5
 189.08203125 116 l 5
 158 0 l 5
EndSplineSet
EndChar

StartChar: comma
Encoding: 44 44 54
Width: 198
Flags: HMW
LayerCount: 2
Fore
SplineSet
56.23828125 -126 m 5
 23.205078125 -100 l 5
 101.724609375 0 l 5
 40 0 l 5
 71.08203125 116 l 5
 189.08203125 116 l 5
 158 0 l 5
 56.23828125 -126 l 5
EndSplineSet
EndChar

StartChar: question
Encoding: 63 63 55
Width: 484
Flags: HMW
LayerCount: 2
Fore
SplineSet
288.348632812 0 m 1
 170.348632812 0 l 1
 201.430664062 116 l 1
 319.430664062 116 l 1
 288.348632812 0 l 1
361.189453125 297.969726562 m 5
 331.1875 186 l 1
 222.1875 186 l 1
 258.092773438 320 l 1
 333.744140625 320 426.705078125 375.834960938 459.70703125 499 c 0
 490.12890625 612.538085938 471.650390625 663 419.650390625 663 c 0
 367.650390625 663 322.926757812 615.516601562 286.34765625 479 c 1
 173.70703125 499 l 1
 215.506835938 655 335.440429688 707 431.440429688 707 c 0
 527.440429688 707 619.506835938 655 577.70703125 499 c 0
 545.55078125 378.994140625 448.671875 316 361.189453125 297.969726562 c 5
EndSplineSet
EndChar

StartChar: colon
Encoding: 58 58 56
Width: 198
Flags: HMW
LayerCount: 2
Fore
SplineSet
260.892578125 384 m 5
 142.892578125 384 l 5
 173.974609375 500 l 5
 291.974609375 500 l 5
 260.892578125 384 l 5
183.1875 94 m 5
 65.1875 94 l 5
 96.26953125 210 l 5
 214.26953125 210 l 5
 183.1875 94 l 5
EndSplineSet
EndChar

StartChar: hyphen
Encoding: 45 45 57
Width: 347
Flags: HW
HStem: 215 93<40 307>
VStem: 40 267<215 308>
LayerCount: 2
Fore
SplineSet
122.528320312 308 m 1
 389.528320312 308 l 1
 364.609375 215 l 1
 97.609375 215 l 1
 122.528320312 308 l 1
EndSplineSet
EndChar
